<?xml version="1.0" standalone="no"?>
<!DOCTYPE svg PUBLIC "-//W3C//DTD SVG 20010904//EN"
 "http://www.w3.org/TR/2001/REC-SVG-20010904/DTD/svg10.dtd">
<svg version="1.0" xmlns="http://www.w3.org/2000/svg"
 width="729.000000pt" height="212.000000pt" viewBox="0 0 729.000000 212.000000"
 preserveAspectRatio="xMidYMid meet">

<g transform="translate(0.000000,212.000000) scale(0.100000,-0.100000)"
fill="#000000" stroke="none">
<path d="M304 1860 c-74 -30 -126 -79 -159 -151 -24 -55 -27 -71 -23 -138 5
-88 29 -142 86 -199 46 -46 102 -74 162 -79 87 -8 86 -8 99 -70 19 -96 18 -98
-47 -121 -100 -37 -204 -128 -251 -221 -58 -112 -67 -276 -21 -391 45 -118
151 -225 268 -272 49 -20 75 -23 177 -23 114 0 123 2 185 31 122 58 210 151
252 266 23 64 20 63 118 45 l65 -12 6 -55 c13 -115 83 -215 182 -261 66 -29
174 -26 243 8 108 53 169 150 168 268 -3 313 -436 409 -566 126 -26 -57 -27
-58 -123 -38 l-60 13 -6 95 c-4 78 -11 107 -37 163 -17 37 -41 79 -52 93 -11
14 -20 33 -20 42 0 18 349 371 367 371 6 0 35 -12 63 -27 106 -55 246 -39 333
37 129 114 138 309 19 428 -144 144 -387 112 -477 -63 -26 -50 -30 -70 -30
-135 0 -65 4 -85 32 -140 l32 -65 -188 -189 -189 -189 -62 41 c-76 51 -140 72
-247 79 l-83 6 -9 36 c-5 20 -12 55 -16 78 l-7 42 51 25 c181 92 228 314 99
461 -83 94 -222 129 -334 85z m231 -41 c87 -45 135 -116 142 -213 5 -53 2 -72
-19 -118 -28 -61 -81 -117 -136 -145 -54 -26 -174 -24 -227 4 -143 76 -188
254 -97 388 32 45 91 89 142 104 50 14 147 4 195 -20z m1101 3 c51 -26 109
-87 129 -135 9 -22 16 -65 16 -97 1 -217 -245 -346 -419 -220 -87 63 -127 185
-96 290 21 73 110 163 175 179 62 14 149 7 195 -17z m-892 -753 c173 -65 285
-226 286 -409 0 -224 -186 -422 -411 -437 -274 -19 -487 196 -465 471 14 189
169 363 352 396 67 12 178 2 238 -21z m855 -335 c33 -9 69 -30 96 -55 139
-128 105 -346 -67 -435 -42 -22 -133 -29 -185 -15 -126 34 -210 175 -183 305
20 97 80 165 174 198 64 22 98 22 165 2z"/>
<path d="M4163 1846 c-104 -34 -185 -106 -232 -205 -23 -49 -26 -69 -26 -156
0 -89 3 -106 28 -156 43 -88 98 -143 185 -186 70 -35 83 -38 161 -38 75 0 94
4 151 31 123 58 216 186 227 313 9 94 15 91 -222 91 -150 0 -205 -3 -213 -12
-19 -23 -26 -89 -11 -99 8 -5 80 -9 161 -9 81 0 149 -4 152 -9 20 -32 -68
-130 -151 -168 -48 -22 -63 -24 -116 -18 -109 12 -174 54 -213 140 -30 64 -33
170 -5 230 21 47 86 108 138 131 61 26 148 22 217 -9 32 -15 64 -27 70 -27 7
0 25 14 41 30 38 40 29 55 -59 99 -60 31 -79 35 -155 38 -54 2 -102 -2 -128
-11z"/>
<path d="M2129 1845 c-6 -6 0 -715 6 -724 2 -4 25 -6 52 -6 l48 1 5 155 5 154
145 2 145 2 -2 36 c-5 74 -8 75 -159 75 l-135 0 3 98 3 97 180 1 180 2 0 53 0
54 -236 3 c-129 1 -238 0 -240 -3z"/>
<path d="M2680 1845 c-4 0 0 -718 4 -722 8 -9 388 -5 396 4 4 4 5 29 2 56 l-4
47 -144 0 -144 0 -2 308 -3 307 -52 0 c-29 0 -53 0 -53 0z"/>
<path d="M4745 1839 c-3 -8 -4 -172 -3 -364 l3 -350 43 -3 c73 -5 72 -10 72
267 l1 246 25 -30 c15 -16 66 -92 115 -167 63 -99 94 -138 107 -138 14 0 47
43 118 153 113 175 120 183 128 161 3 -9 6 -118 6 -243 0 -163 3 -230 12 -239
16 -16 80 -16 96 0 9 9 12 99 12 344 0 183 -3 339 -6 348 -5 12 -21 16 -75 16
-60 0 -70 -3 -80 -22 -39 -73 -202 -308 -214 -308 -7 0 -61 72 -118 159 -58
87 -111 162 -117 166 -6 3 -35 9 -65 12 -41 4 -56 2 -60 -8z"/>
<path d="M3431 1778 c-16 -35 -72 -160 -125 -278 -160 -354 -168 -372 -159
-380 4 -5 32 -6 61 -3 52 6 53 7 79 57 14 28 31 54 37 58 6 4 67 8 136 8 69 0
131 4 139 9 11 7 11 15 1 45 -17 54 -42 66 -132 66 -42 0 -79 4 -82 8 -5 8 52
146 112 270 l30 63 50 -98 c27 -54 87 -181 132 -283 46 -102 88 -188 94 -192
16 -11 104 -10 110 1 6 9 -286 672 -307 699 -6 7 -35 12 -79 12 l-69 0 -28
-62z"/>
<path d="M5824 1743 c-137 -293 -265 -587 -262 -601 2 -11 15 -18 37 -20 61
-6 77 4 101 63 l22 55 137 0 c75 0 142 4 150 9 13 8 12 15 -4 51 -24 53 -39
60 -124 60 -94 0 -103 4 -85 38 7 15 42 89 78 165 l63 137 36 -67 c19 -38 67
-140 107 -228 40 -88 87 -190 106 -227 l33 -66 56 0 c30 0 55 3 55 6 0 13 -59
149 -183 422 l-134 295 -72 3 -72 3 -45 -98z"/>
<path d="M6409 1495 c-1 -190 -2 -351 -3 -357 -1 -9 18 -14 57 -16 l57 -3 0
252 c0 227 2 251 15 233 8 -10 78 -124 156 -251 l141 -233 59 0 c53 0 59 2 64
23 3 12 4 173 3 357 l-3 335 -52 0 -53 0 -5 -217 c-3 -120 -9 -227 -13 -238
-6 -16 -32 22 -137 196 -71 119 -138 227 -148 240 -16 20 -27 24 -78 24 l-59
0 -1 -345z"/>
<path d="M2395 946 c-95 -30 -189 -106 -227 -182 -48 -95 -50 -241 -6 -336 71
-152 247 -248 403 -219 62 12 156 55 182 83 16 18 15 21 -20 56 -35 34 -39 36
-60 22 -61 -39 -98 -50 -165 -50 -151 0 -261 107 -262 254 0 81 17 129 63 182
51 58 106 85 183 92 68 5 115 -7 170 -44 l37 -25 33 32 c19 18 34 39 34 46 0
18 -74 63 -139 85 -63 21 -167 23 -226 4z"/>
<path d="M3043 946 c-242 -79 -337 -360 -196 -574 83 -124 248 -194 384 -162
122 29 218 104 274 216 27 53 30 68 30 154 0 82 -4 103 -27 152 -37 80 -107
152 -186 190 -55 27 -77 32 -151 35 -54 2 -102 -2 -128 -11z m228 -124 c64
-28 116 -84 134 -145 31 -103 15 -192 -47 -262 -93 -105 -246 -123 -359 -40
-127 92 -135 294 -17 401 86 77 183 92 289 46z"/>
<path d="M5675 947 c-73 -25 -122 -56 -168 -107 -66 -73 -91 -143 -91 -255 0
-80 3 -97 30 -155 73 -155 247 -250 404 -220 59 11 141 47 180 79 l25 20 -39
40 c-37 38 -41 40 -60 26 -80 -59 -200 -74 -279 -34 -119 60 -174 172 -147
302 29 143 176 230 324 192 33 -9 75 -24 92 -34 l32 -19 36 37 36 37 -22 22
c-13 11 -50 33 -83 48 -71 33 -203 43 -270 21z"/>
<path d="M4072 938 c-8 -8 -12 -74 -13 -222 -1 -116 -4 -222 -8 -235 -6 -21
-14 -12 -68 75 -34 55 -94 155 -133 224 -40 69 -79 133 -88 143 -11 13 -31 17
-79 17 l-63 0 0 -355 0 -355 25 -12 c17 -7 35 -8 57 -2 l33 10 5 243 c5 224 6
242 21 225 9 -11 71 -113 139 -227 152 -256 156 -261 217 -254 25 3 49 10 53
17 9 14 9 685 0 699 -9 16 -84 23 -98 9z"/>
<path d="M4265 878 c-4 -40 -5 -199 -3 -354 3 -299 6 -314 52 -314 12 0 32 7
44 16 22 15 22 19 22 251 0 234 0 237 19 216 11 -11 74 -111 141 -222 67 -111
133 -215 147 -232 26 -31 60 -37 107 -19 l26 10 -2 352 -3 353 -40 6 c-66 11
-65 12 -66 -150 -1 -184 -11 -313 -24 -318 -6 -2 -69 97 -140 219 -72 122
-138 230 -147 240 -13 13 -33 18 -72 18 l-54 0 -7 -72z"/>
<path d="M4919 939 c-5 -3 -8 -153 -7 -360 l3 -354 243 -3 243 -2 -3 52 -3 53
-175 8 c-96 4 -181 10 -187 12 -9 3 -13 30 -13 90 l0 85 143 0 c78 0 148 4
154 8 10 6 10 17 2 47 -18 65 -18 65 -166 65 l-134 0 3 93 3 92 175 8 c96 4
181 9 188 12 7 2 12 22 12 45 0 23 -5 43 -12 45 -19 7 -458 11 -469 4z"/>
<path d="M6110 889 l0 -61 98 2 c53 1 103 2 110 1 9 -1 12 -69 12 -306 l0
-305 55 0 55 0 0 305 c0 237 3 305 13 306 6 0 55 1 107 2 l95 2 0 55 0 55
-272 3 -273 2 0 -61z"/>
</g>
</svg>
